# xmcd CD database file
#
# Track frame offsets:
#	150
#	14545
#	26709
#	38940
#	52530
#	65086
#	73656
#	82630
#	93880
#	106782
#	118468
#	127851
#
# Disc length: 1849 seconds
#
# Revision: 0
# Processed by: cddbd v1.5.1PL0 Copyright (c) Steve Scherf et al.
# Submitted via: CDex 1.51
#
DISCID=9307370c
DTITLE=Slim Dusty - Songs For Rolling Stones
DYEAR=2005
DGENRE=Country
TTITLE0=Born to Be a Rolling Stone
TTITLE1=Rovin' Gambler
TTITLE2=Bumming Around
TTITLE3=Whiskey Blues
TTITLE4=Can I Sleep in Your Barn Tonight Mister
TTITLE5=The Road to Gundagai
TTITLE6=Three Times Seven
TTITLE7=Little Blossom
TTITLE8=Travellin' Guitar
TTITLE9=Down the Track
TTITLE10=I'll Be a Bachelor Till I Die
TTITLE11=Somebody's Mother Tonight
EXTD=YEAR: 2005
EXTT0=
EXTT1=
EXTT2=
EXTT3=
EXTT4=
EXTT5=
EXTT6=
EXTT7=
EXTT8=
EXTT9=
EXTT10=
EXTT11=
PLAYORDER=
